<?xml version="1.0" standalone="no"?>
<!DOCTYPE svg PUBLIC "-//W3C//DTD SVG 20010904//EN"
 "http://www.w3.org/TR/2001/REC-SVG-20010904/DTD/svg10.dtd">
<svg version="1.0" xmlns="http://www.w3.org/2000/svg"
 width="1182.000000pt" height="1182.000000pt" viewBox="0 0 1182.000000 1182.000000"
 preserveAspectRatio="xMidYMid meet">
<metadata>
Created by potrace 1.14, written by Peter Selinger 2001-2017
</metadata>
<g transform="translate(0.000000,1182.000000) scale(0.100000,-0.100000)"
fill="#000000" stroke="none">
<path d="M7678 10380 c4 -4 50 -19 102 -34 689 -201 1238 -623 1508 -1161 93
-187 149 -361 181 -570 19 -120 22 -159 22 -303 1 -184 -5 -245 -41 -447 -23
-129 -101 -397 -145 -500 -8 -16 -30 -68 -50 -115 -256 -595 -772 -1211 -1420
-1694 -425 -318 -941 -603 -1424 -787 -58 -23 -115 -45 -126 -50 -11 -4 -67
-24 -125 -44 -138 -47 -138 -48 -15 -31 11 2 45 6 75 10 30 4 91 14 135 21 44
8 94 17 112 20 71 12 313 69 426 101 67 19 130 36 140 39 43 10 330 111 422
147 569 226 1135 556 1528 891 12 11 42 35 66 55 262 217 564 546 763 833 295
423 479 888 526 1324 9 91 9 371 -1 458 -50 453 -286 882 -658 1199 -291 247
-675 433 -1114 538 -107 25 -167 38 -270 54 -152 25 -219 32 -388 41 -181 10
-238 12 -229 5z"/>
<path d="M6258 10235 c-2 -1 -59 -5 -128 -9 -69 -4 -137 -8 -150 -10 -14 -3
-51 -7 -84 -11 -32 -4 -68 -8 -80 -10 -11 -2 -41 -6 -66 -9 -25 -3 -56 -8 -70
-11 -14 -2 -36 -7 -50 -10 -14 -3 -43 -8 -65 -11 -32 -4 -136 -26 -235 -49
-631 -146 -1587 -606 -2080 -1002 -340 -272 -539 -475 -732 -748 l-43 -60 90
76 c584 492 1433 916 2275 1136 52 14 102 26 110 28 8 2 35 8 60 15 25 7 56
14 70 16 14 3 33 7 42 10 27 8 303 60 368 70 19 3 46 7 60 10 44 8 64 11 113
18 27 4 56 9 65 11 18 3 77 11 160 21 26 3 58 7 72 9 23 4 72 8 205 20 213 20
593 25 780 11 88 -6 270 -28 331 -40 12 -3 38 -7 59 -10 119 -19 393 -101 529
-159 216 -92 491 -267 646 -413 85 -79 112 -104 115 -104 11 0 -55 181 -95
260 -168 333 -483 592 -915 754 -55 21 -109 41 -120 46 -46 19 -293 80 -375
94 -19 3 -46 8 -60 10 -14 2 -56 9 -95 15 -67 10 -101 14 -240 27 -59 5 -462
13 -467 9z"/>
<path d="M6538 9335 c-2 -1 -39 -5 -83 -8 -70 -5 -136 -13 -275 -33 -36 -5
-185 -30 -230 -39 -14 -3 -47 -9 -75 -15 -27 -6 -59 -12 -70 -14 -11 -3 -42
-10 -70 -16 -27 -6 -57 -13 -65 -15 -33 -7 -187 -47 -215 -55 -16 -6 -84 -26
-150 -46 -199 -59 -439 -143 -487 -169 -14 -8 -31 -15 -36 -15 -28 0 -476
-211 -637 -300 -937 -516 -1649 -1243 -2127 -2170 -69 -134 -142 -292 -198
-430 -12 -30 -28 -68 -35 -85 -50 -115 -175 -501 -219 -670 -25 -101 -56 -292
-71 -445 -30 -315 -18 -684 31 -934 2 -11 7 -37 10 -56 22 -125 89 -357 144
-496 90 -225 247 -488 389 -648 43 -50 227 -233 263 -262 97 -81 297 -224 312
-224 3 0 22 -12 43 -26 42 -28 242 -129 313 -157 25 -10 53 -23 63 -28 42 -23
24 0 -25 33 -113 76 -229 199 -333 353 -124 184 -297 610 -331 815 -2 14 -9
48 -15 75 -5 28 -12 68 -15 90 -3 22 -7 49 -9 60 -19 94 -26 489 -12 670 12
154 42 360 71 490 1 6 8 37 15 70 139 655 506 1420 984 2050 98 129 100 132
226 275 476 541 1081 950 1659 1122 89 26 236 66 264 72 216 45 240 48 388 49
141 2 264 -5 330 -18 14 -3 41 -8 60 -11 138 -23 331 -106 439 -187 68 -51 80
-63 135 -132 87 -108 129 -246 130 -430 0 -81 -14 -206 -26 -229 -6 -11 -10
-23 -9 -26 9 -23 -47 -178 -114 -312 -106 -211 -338 -493 -525 -636 -70 -54
-354 -242 -365 -242 -4 0 -19 -9 -34 -19 -41 -30 -361 -193 -491 -251 -273
-123 -635 -249 -885 -310 -27 -6 -61 -16 -75 -21 -14 -4 -38 -10 -55 -13 -16
-3 -93 -18 -170 -35 -77 -16 -158 -32 -180 -35 -40 -6 -75 -12 -130 -21 -16
-3 -50 -7 -75 -10 -25 -3 -58 -8 -75 -10 -16 -2 -61 -7 -100 -10 -38 -3 -81
-8 -95 -10 -56 -10 -289 -19 -487 -19 -117 -1 -213 -2 -213 -4 0 -1 24 -13 54
-26 189 -84 387 -239 529 -416 86 -108 188 -286 248 -436 76 -191 151 -460
176 -629 43 -308 189 -612 395 -830 247 -261 513 -411 903 -509 55 -13 116
-27 135 -30 19 -3 46 -8 60 -11 14 -3 48 -8 75 -11 28 -3 74 -9 102 -13 135
-20 642 -18 704 3 8 3 43 7 79 10 36 3 76 8 89 10 13 3 49 8 80 12 31 3 58 8
61 9 3 2 26 6 50 10 25 4 88 16 140 27 52 10 106 22 120 24 138 26 655 181
785 235 17 6 35 13 40 15 51 13 341 142 530 235 137 68 166 83 310 164 161 89
453 279 599 388 437 326 811 688 1112 1077 439 568 736 1227 829 1840 4 25 8
52 10 60 2 8 6 40 10 70 4 30 9 66 11 80 24 145 24 669 0 810 -3 14 -7 43 -10
65 -10 80 -27 172 -46 255 -11 47 -23 94 -25 104 -54 231 -192 552 -343 796
-56 90 -208 300 -217 300 -2 0 16 -42 40 -92 85 -180 152 -408 190 -643 38
-232 37 -623 -1 -875 -8 -58 -18 -121 -20 -140 -29 -207 -173 -686 -269 -897
-14 -29 -25 -56 -25 -59 0 -15 -140 -295 -207 -413 -240 -425 -508 -771 -863
-1116 -590 -574 -1204 -918 -1890 -1058 -69 -14 -145 -28 -170 -31 -25 -4 -56
-8 -70 -11 -54 -10 -212 -19 -350 -19 -211 -1 -316 12 -505 59 -555 140 -986
496 -1236 1021 -33 68 -59 127 -59 133 0 5 44 16 98 26 53 9 115 21 137 27 22
6 51 12 64 15 52 9 331 82 411 108 427 135 827 319 1179 543 58 37 111 70 116
74 6 4 64 47 130 94 404 291 782 677 1043 1064 172 255 305 608 358 945 17
112 23 364 10 440 -4 22 -11 69 -17 104 -12 77 -55 210 -97 304 -107 236 -331
460 -592 594 -93 47 -132 64 -240 102 -153 53 -337 94 -530 116 -30 3 -73 8
-95 11 -42 5 -512 13 -517 9z"/>
<path d="M3750 8629 c-58 -10 -116 -20 -130 -23 -294 -52 -654 -169 -920 -298
-106 -52 -311 -166 -320 -178 -3 -4 -16 -13 -29 -20 -48 -25 -199 -136 -306
-225 -180 -150 -357 -333 -529 -545 -48 -59 -198 -275 -258 -370 -229 -364
-366 -657 -472 -1005 -58 -194 -124 -470 -140 -585 -7 -56 -16 -113 -21 -135
-2 -11 -7 -47 -10 -80 -4 -33 -8 -71 -11 -85 -11 -69 -18 -207 -18 -415 -1
-288 8 -382 59 -670 24 -128 91 -348 152 -495 50 -119 134 -283 128 -250 -2
14 -7 39 -10 55 -3 17 -7 44 -10 60 -3 17 -7 41 -10 55 -3 14 -8 50 -11 80 -3
30 -7 66 -9 80 -26 170 -26 792 0 928 1 9 6 49 9 87 4 39 9 77 11 85 2 8 6 35
9 60 4 25 8 57 11 72 3 16 7 38 9 50 3 20 11 64 31 171 3 16 18 81 34 145 102
417 241 796 432 1176 73 145 90 177 172 316 115 195 328 497 432 615 15 17 45
52 68 80 63 75 351 364 442 442 347 300 698 529 1150 749 105 51 186 93 180
92 -5 0 -57 -9 -115 -19z"/>
<path d="M3191 3991 c-22 -83 -56 -231 -65 -291 -29 -179 -29 -517 -1 -660 3
-14 10 -50 16 -80 71 -365 292 -729 588 -973 86 -71 207 -157 221 -157 6 0 10
-4 10 -10 0 -5 4 -10 8 -10 5 0 46 -20 93 -45 263 -142 612 -239 974 -272 93
-8 413 -7 495 1 36 4 85 9 110 11 70 7 134 17 265 40 286 50 647 163 919 289
43 20 81 36 86 36 5 0 11 4 14 9 3 5 -27 0 -67 -10 -39 -10 -84 -21 -99 -24
-16 -3 -56 -12 -90 -20 -35 -8 -119 -23 -188 -34 -113 -18 -147 -23 -260 -36
-218 -25 -618 -25 -805 1 -16 2 -55 6 -85 9 -30 3 -62 8 -70 10 -8 3 -33 7
-55 11 -22 3 -60 10 -85 16 -25 5 -52 11 -60 13 -130 28 -317 87 -462 146
-582 238 -1034 687 -1235 1229 -32 85 -79 240 -88 289 -3 14 -7 37 -10 51 -19
84 -36 246 -40 379 -3 85 -7 156 -9 158 -2 2 -13 -32 -25 -76z"/>
</g>
</svg>
